<?xml version="1.0" encoding="UTF-8"?>
<svg width="200" height="200" viewBox="0 0 200 200" xmlns="http://www.w3.org/2000/svg">
  <defs>
    <linearGradient id="heatwaveGrad" x1="0%" y1="0%" x2="100%" y2="100%">
      <stop offset="0%" stop-color="#FF5722"/>
      <stop offset="100%" stop-color="#FF9800"/>
    </linearGradient>
  </defs>
  <circle cx="100" cy="100" r="90" fill="#F8F9FA" stroke="url(#heatwaveGrad)" stroke-width="4"/>
  <path d="M50,110 Q65,90 80,110 Q95,90 110,110 Q125,90 140,110 Q155,90 170,110" stroke="url(#heatwaveGrad)" stroke-width="4" fill="none"/>
  <path d="M50,130 Q65,110 80,130 Q95,110 110,130 Q125,110 140,130 Q155,110 170,130" stroke="url(#heatwaveGrad)" stroke-width="2" fill="none" opacity="0.7"/>
  <path d="M50,90 Q65,70 80,90 Q95,70 110,90 Q125,70 140,90 Q155,70 170,90" stroke="url(#heatwaveGrad)" stroke-width="2" fill="none" opacity="0.7"/>
  <text x="100" y="160" font-family="Arial, sans-serif" font-size="14" font-weight="bold" text-anchor="middle" fill="#FF5722">MARINE HEATWAVES</text>
</svg>
